<?xml version="1.0" encoding="UTF-8" standalone="no"?>
<!-- Created with Inkscape (http://www.inkscape.org/) -->

<svg
   xmlns:dc="http://purl.org/dc/elements/1.1/"
   xmlns:cc="http://creativecommons.org/ns#"
   xmlns:rdf="http://www.w3.org/1999/02/22-rdf-syntax-ns#"
   xmlns:svg="http://www.w3.org/2000/svg"
   xmlns="http://www.w3.org/2000/svg"
   version="1.1"
   width="30"
   height="30"
   id="svg2">
  <defs
     id="defs4" />
  <metadata
     id="metadata7">
    <rdf:RDF>
      <cc:Work
         rdf:about="">
        <dc:format>image/svg+xml</dc:format>
        <dc:type
           rdf:resource="http://purl.org/dc/dcmitype/StillImage" />
        <dc:title></dc:title>
      </cc:Work>
    </rdf:RDF>
  </metadata>
  <g
     transform="matrix(0.83333333,0,0,1,2.5,-1022.3623)"
     id="layer1"
     style="fill:#000000">
    <path
       d="M 15,0 C 7.5,0 2.5,6 2.5,15 l 0,15 25,0 0,-15 -20.84375,0 C 6.65625,5 12.5,4 15,4 c 1.980376,0 6.049057,1.029241 7.65625,6 l 4.25,0 C 25.385833,3.857059 20.999409,0 15,0 z m 0,18 c 1.656854,0 3,1.343146 3,3 0,1.158742 -0.663246,2.156516 -1.625,2.65625 L 18,28 12,28 13.625,23.65625 C 12.663246,23.156516 12,22.158742 12,21 c 0,-1.656854 1.343146,-3 3,-3 z"
       transform="matrix(1.2,0,0,1,-3,1022.3623)"
       id="path3793"
       style="fill:#ffffff;fill-opacity:1;stroke:none" />
  </g>
</svg>
