<?xml version="1.0" encoding="UTF-8" standalone="no"?>
<!-- Created with Inkscape (http://www.inkscape.org/) -->

<svg
   xmlns:dc="http://purl.org/dc/elements/1.1/"
   xmlns:cc="http://creativecommons.org/ns#"
   xmlns:rdf="http://www.w3.org/1999/02/22-rdf-syntax-ns#"
   xmlns:svg="http://www.w3.org/2000/svg"
   xmlns="http://www.w3.org/2000/svg"
   version="1.1"
   width="30"
   height="30"
   id="svg2">
  <defs
     id="defs4" />
  <metadata
     id="metadata7">
    <rdf:RDF>
      <cc:Work
         rdf:about="">
        <dc:format>image/svg+xml</dc:format>
        <dc:type
           rdf:resource="http://purl.org/dc/dcmitype/StillImage" />
        <dc:title></dc:title>
      </cc:Work>
    </rdf:RDF>
  </metadata>
  <g
     transform="matrix(1.0714063,0,0,1.0714063,2.1425,-2.142189)"
     id="g3831"
     style="fill:#ffffff">
    <path
       d="m 0,18 c 0,7.2 4.8,12 12,12 7.2,0 12,-4.8 12,-12 0,-7.2 -4.8,-11.9999999 -12,-11.9999999 0,0.8 0,3.2 0,3.9999999 4.8,0 8,3.2 8,8 0,4.8 -3.2,8 -8,8 -4.8,0 -8,-3.2 -8,-8 -0.8,0 -3.2,0 -4,0 z"
       id="path3774"
       style="fill:#ffffff;stroke:none" />
    <path
       d="M 12,2 12,14 3,8 z"
       id="path3778"
       style="fill:#ffffff;stroke:none" />
  </g>
</svg>
